<svg width="56" height="56" viewBox="0 0 56 56" fill="none" xmlns="http://www.w3.org/2000/svg">
<path d="M48.9492 46.3149L49.0896 48.4036L50.8716 48.2838L51.034 46.5052L48.9492 46.3149ZM41.4207 46.8209L39.6375 47.9176L40.2998 48.9944L41.5611 48.9096L41.4207 46.8209ZM39.4121 43.555L41.1953 42.4583L38.9904 38.8731L37.4616 42.7946L39.4121 43.555ZM37.6488 48.0782L37.7012 50.171L39.0935 50.1362L39.5993 48.8386L37.6488 48.0782ZM32.7423 48.2008L30.6954 48.6399L31.0594 50.337L32.7946 50.2937L32.7423 48.2008ZM26.9771 21.3222L27.1815 19.2388L24.3291 18.9589L24.9302 21.7613L26.9771 21.3222ZM35.8855 22.1962L37.9462 21.8275L37.6671 20.2675L36.0899 20.1127L35.8855 22.1962ZM37.5261 31.3653L35.4654 31.734L36.5538 37.8168L39.3866 32.325L37.5261 31.3653ZM39.2741 27.9767L41.1013 26.955L39.1998 23.5543L37.4136 27.017L39.2741 27.9767ZM41.6661 32.2546L39.8388 33.2763L43.1524 39.2025L43.7513 32.4393L41.6661 32.2546ZM42.9233 18.0563L42.7718 15.9683L40.9952 16.0973L40.838 17.8716L42.9233 18.0563ZM51.5864 17.4277L53.6711 17.618L53.8956 15.1611L51.4349 15.3397L51.5864 17.4277ZM48.8088 44.2262L41.2803 44.7321L41.5611 48.9096L49.0896 48.4036L48.8088 44.2262ZM43.2039 45.7242L41.1953 42.4583L37.6289 44.6517L39.6375 47.9176L43.2039 45.7242ZM37.4616 42.7946L35.6983 47.3178L39.5993 48.8386L41.3626 44.3153L37.4616 42.7946ZM37.5965 45.9854L32.6899 46.1081L32.7946 50.2937L37.7012 50.171L37.5965 45.9854ZM34.7892 47.7618L29.024 20.8832L24.9302 21.7613L30.6954 48.6399L34.7892 47.7618ZM26.7727 23.4057L35.6811 24.2797L36.0899 20.1127L27.1815 19.2388L26.7727 23.4057ZM33.8248 22.5649L35.4654 31.734L39.5869 30.9966L37.9462 21.8275L33.8248 22.5649ZM39.3866 32.325L41.1346 28.9364L37.4136 27.017L35.6656 30.4056L39.3866 32.325ZM37.4469 28.9984L39.8388 33.2763L43.4933 31.2329L41.1013 26.955L37.4469 28.9984ZM43.7513 32.4393L45.0086 18.241L40.838 17.8716L39.5808 32.0699L43.7513 32.4393ZM43.0748 20.1443L51.7379 19.5156L51.4349 15.3397L42.7718 15.9683L43.0748 20.1443ZM49.5017 17.2373L46.8644 46.1246L51.034 46.5052L53.6711 17.618L49.5017 17.2373Z" fill="#3B82F6"/>
<path d="M48.9486 46.3145L41.4201 46.8205L39.4115 43.5546L37.6483 48.0778L32.7417 48.2004L26.9766 21.3218L35.8849 22.1958L37.5256 31.3649L39.2736 27.9763L41.6655 32.2542L42.9228 18.0559L51.5858 17.4272L48.9486 46.3145Z" fill="#FACC15"/>
<path d="M6.29779 5.49547L5.79871 3.45849L3.4541 3.99328L4.36232 6.24638L6.29779 5.49547ZM12.6889 4.06572L12.2134 2.02353L12.2106 2.02413L12.2078 2.02473L12.6889 4.06572ZM19.0036 2.90483L19.3589 4.96926L19.3672 4.968L19.3753 4.96667L19.0036 2.90483ZM25.3136 2.15775L25.4954 4.2416L25.4974 4.24145L25.4994 4.24131L25.3136 2.15775ZM35.2103 2.94283L35.7612 0.938144L35.7481 0.934343L35.7351 0.930709L35.2103 2.94283ZM38.6344 4.43174L37.5816 6.21671L37.5874 6.2202L37.5932 6.2237L38.6344 4.43174ZM41.4321 6.85474L39.8165 8.14966L39.8303 8.16671L39.8444 8.1835L41.4321 6.85474ZM43.3289 10.1854L45.2981 9.52378L45.2952 9.51544L45.2922 9.50715L43.3289 10.1854ZM39.5668 19.0208L37.9984 17.6132L37.9957 17.6162L37.993 17.6193L39.5668 19.0208ZM32.199 26.2117L30.8545 24.5893L30.8513 24.5919L30.848 24.5946L32.199 26.2117ZM26.7717 30.5235L25.5287 28.8227L24.4605 29.5943L24.7244 30.9014L26.7717 30.5235ZM30.3594 48.2951L31.4457 50.0984L32.6977 49.3587L32.4067 47.9171L30.3594 48.2951ZM22.7605 52.7851L20.7412 53.283L21.4571 56L23.8468 54.5881L22.7605 52.7851ZM12.9724 15.6373L14.9917 15.1391L14.6125 13.7L13.1351 13.558L12.9724 15.6373ZM11.0671 17.3599L9.63081 15.8177L9.62945 15.819L9.62809 15.8203L11.0671 17.3599ZM10.0543 18.2844L9.89145 20.3637L10.754 20.4465L11.4117 19.8962L10.0543 18.2844ZM9.59744 17.053L7.58887 17.5906L7.59472 17.611L7.60095 17.6314L9.59744 17.053ZM8.64483 13.6749L6.62574 14.1741L6.62998 14.1901L6.63442 14.206L8.64483 13.6749ZM7.33493 8.85401L9.3467 8.32798L9.34503 8.32198L9.34335 8.31598L7.33493 8.85401ZM23.4645 14.8225L22.3609 13.0295L21.1381 13.7684L21.4145 15.1866L23.4645 14.8225ZM25.0827 23.1252L23.0327 23.4893L23.726 27.0465L26.4528 24.7263L25.0827 23.1252ZM32.1528 14.083L31.5421 16.0693L31.5754 16.0801L31.609 16.0897L32.1528 14.083ZM6.79688 7.53244C9.06363 7.01538 11.1879 6.54018 13.1699 6.1067L12.2078 2.02473C10.2122 2.46116 8.07582 2.9391 5.79871 3.45849L6.79688 7.53244ZM13.1644 6.1079C15.1285 5.68401 17.1932 5.30428 19.3589 4.96926L18.6482 0.840399C16.4086 1.18686 14.2634 1.58107 12.2134 2.02353L13.1644 6.1079ZM19.3753 4.96667C21.5235 4.61675 23.5632 4.37574 25.4954 4.2416L25.1318 0.0739145C23.0589 0.217833 20.8919 0.474874 18.6319 0.842996L19.3753 4.96667ZM25.4994 4.24131C26.9189 4.13997 28.368 4.15942 29.8482 4.30162L30.1738 0.143146C28.4692 -0.0206131 26.7867 -0.0442461 25.1278 0.0742008L25.4994 4.24131ZM29.8482 4.30162C32.5411 4.56034 34.0838 4.78802 34.6855 4.95495L35.7351 0.930709C34.7124 0.646984 32.7888 0.394377 30.1738 0.143146L29.8482 4.30162ZM34.6593 4.94752C35.7165 5.25548 36.6883 5.67952 37.5816 6.21671L39.6872 2.64677C38.4671 1.91303 37.1562 1.34449 35.7612 0.938144L34.6593 4.94752ZM37.5932 6.2237C38.4477 6.73018 39.1859 7.36904 39.8165 8.14966L43.0477 5.55981C42.098 4.38422 40.9711 3.40778 39.6756 2.63981L37.5932 6.2237ZM39.8444 8.1835C40.4808 8.93899 40.9907 9.82546 41.3657 10.8637L45.2922 9.50715C44.7578 8.0276 44.0032 6.69363 43.0198 5.52597L39.8444 8.1835ZM41.3598 10.847C41.4418 11.08 41.4741 11.3176 41.4535 11.5795L45.6186 11.9796C45.6839 11.145 45.5781 10.3198 45.2981 9.52378L41.3598 10.847ZM41.4535 11.5795C41.3476 12.9335 40.4022 14.9243 37.9984 17.6132L41.1351 20.4284C43.7032 17.5557 45.4041 14.719 45.6186 11.9796L41.4535 11.5795ZM37.993 17.6193C35.584 20.3356 33.2039 22.6558 30.8545 24.5893L33.5435 27.8342C36.0825 25.7447 38.6141 23.271 41.1405 20.4223L37.993 17.6193ZM30.848 24.5946C28.4271 26.6038 26.6622 28.0039 25.5287 28.8227L28.0147 32.2242C29.266 31.3204 31.1192 29.8461 33.55 27.8288L30.848 24.5946ZM24.7244 30.9014L28.3121 48.6731L32.4067 47.9171L28.819 30.1455L24.7244 30.9014ZM29.273 46.4918L21.6742 50.9816L23.8468 54.5881L31.4457 50.0984L29.273 46.4918ZM24.7798 52.2867L14.9917 15.1391L10.953 16.1355L20.7412 53.283L24.7798 52.2867ZM13.1351 13.558C12.7551 13.5215 12.4612 13.598 12.3341 13.6358C12.1847 13.6804 12.0694 13.7331 12.0021 13.7662C11.8682 13.8321 11.7661 13.8998 11.7158 13.9343C11.6071 14.0087 11.511 14.0869 11.4468 14.1406C11.3083 14.2565 11.1436 14.4063 10.9665 14.5725L13.8533 17.6435C14.0146 17.4923 14.1127 17.405 14.1617 17.364C14.1913 17.3393 14.1701 17.3591 14.1174 17.3952C14.0951 17.4104 14.0162 17.464 13.901 17.5208C13.843 17.5493 13.7358 17.5987 13.5933 17.6412C13.4732 17.677 13.185 17.7526 12.8095 17.7165L13.1351 13.558ZM10.9665 14.5725C10.6315 14.8866 10.1866 15.3015 9.63081 15.8177L12.5035 18.902C13.0614 18.3838 13.5116 17.964 13.8533 17.6435L10.9665 14.5725ZM9.62809 15.8203C9.07561 16.3354 8.78359 16.6001 8.69682 16.6727L11.4117 19.8962C11.6012 19.7376 11.9844 19.3859 12.5061 18.8995L9.62809 15.8203ZM10.217 16.2052C10.8173 16.2629 11.2123 16.5582 11.3634 16.6842C11.5379 16.8297 11.6479 16.97 11.6974 17.0366C11.7987 17.1728 11.8529 17.2834 11.8611 17.2999C11.8868 17.3515 11.8862 17.3592 11.8558 17.2772C11.8017 17.1314 11.7157 16.8725 11.5939 16.4746L7.60095 17.6314C7.72878 18.0491 7.84374 18.4033 7.94197 18.6681C7.98768 18.7913 8.05097 18.9536 8.12849 19.1091C8.16259 19.1776 8.23968 19.3275 8.36082 19.4904C8.42019 19.5703 8.53933 19.7208 8.72224 19.8732C8.88172 20.0062 9.28435 20.3054 9.89145 20.3637L10.217 16.2052ZM11.606 16.5154C11.3756 15.7047 11.0587 14.5812 10.6552 13.1439L6.63442 14.206C7.03842 15.6449 7.35664 16.7735 7.58887 17.5906L11.606 16.5154ZM10.6639 13.1757C10.2771 11.7105 9.83794 10.0944 9.3467 8.32798L5.32311 9.38004C5.81037 11.1323 6.24455 12.7301 6.62574 14.1741L10.6639 13.1757ZM9.34335 8.31598C8.8473 6.57214 8.46977 5.33129 8.23325 4.74454L4.36232 6.24638C4.49641 6.57902 4.81027 7.57717 5.32651 9.39203L9.34335 8.31598ZM21.4145 15.1866L23.0327 23.4893L27.1327 22.7612L25.5146 14.4584L21.4145 15.1866ZM26.4528 24.7263C27.7345 23.6357 29.3087 22.1584 31.1663 20.3106L28.1935 17.3226C26.3713 19.1351 24.8807 20.5303 23.7126 21.5242L26.4528 24.7263ZM31.1663 20.3106C32.1298 19.3523 32.9204 18.4593 33.4938 17.6411C34.0279 16.8789 34.548 15.9418 34.6274 14.9283L30.4624 14.5281C30.4716 14.4101 30.4792 14.6021 30.0583 15.2028C29.6767 15.7474 29.0699 16.4509 28.1935 17.3226L31.1663 20.3106ZM34.6274 14.9283C34.6621 14.485 34.6192 13.8576 34.2472 13.2454C33.8495 12.5908 33.2481 12.2348 32.6966 12.0762L31.609 16.0897C31.3461 16.0141 30.9543 15.8072 30.6873 15.3676C30.446 14.9705 30.4548 14.6242 30.4624 14.5281L34.6274 14.9283ZM32.7635 12.0966C31.8153 11.7899 30.8579 11.5875 29.8936 11.4948L29.568 15.6533C30.2143 15.7154 30.8716 15.8523 31.5421 16.0693L32.7635 12.0966ZM29.8936 11.4948C27.1105 11.2275 24.5616 11.6997 22.3609 13.0295L24.5682 16.6155C25.8904 15.8166 27.5189 15.4565 29.568 15.6533L29.8936 11.4948Z" fill="#3B82F6"/>
<path d="M6.2998 5.30673C8.57314 4.78654 10.7048 4.30816 12.6948 3.87157C14.7032 3.43675 16.8094 3.04832 19.0135 2.70628C21.219 2.3459 23.3236 2.09594 25.3274 1.95638C26.8675 1.84607 28.4343 1.86769 30.0277 2.02125C32.6833 2.27719 34.4175 2.51825 35.2302 2.74442C36.457 3.10292 37.5991 3.6011 38.6564 4.23898C39.7321 4.87862 40.6652 5.68931 41.4559 6.67115C42.2663 7.63639 42.8989 8.75079 43.3539 10.0145C43.535 10.5309 43.6041 11.0643 43.5611 11.6146C43.4008 13.6691 42.0769 16.092 39.5894 18.8832C37.1202 21.6763 34.6627 24.0823 32.2171 26.1014C29.7897 28.1222 27.9795 29.565 26.7864 30.4295L30.3763 48.2684L22.7727 52.7754L12.9785 15.487C12.9419 15.4834 12.7542 15.6409 12.4157 15.9595C12.0772 16.278 11.6293 16.6968 11.0721 17.2161C10.5347 17.7187 10.1968 18.0281 10.0586 18.1441C10.0037 18.1389 9.8513 17.7268 9.6015 16.908C9.37002 16.091 9.05228 14.9607 8.6483 13.5172C8.26404 12.057 7.82714 10.444 7.33758 8.67799C6.83112 6.8919 6.48518 5.76813 6.2998 5.30673ZM23.4771 14.669L25.0963 23.0033C26.322 21.9571 27.8554 20.5154 29.6964 18.6783C31.5374 16.8413 32.493 15.4733 32.5632 14.5744C32.5903 14.2259 32.4596 14.01 32.1708 13.9268C31.361 13.6639 30.5531 13.4936 29.7473 13.416C27.3298 13.183 25.2397 13.6007 23.4771 14.669Z" fill="#EF4444"/>
</svg>
